<svg id="svg" version="1.1" width="400" height="274.9090909090909" viewBox="0 0 400 274.9090909090909" xmlns="http://www.w3.org/2000/svg" xmlns:xlink="http://www.w3.org/1999/xlink" ><g id="svgg"><path id="path0" d="M169.347 48.405 C 164.910 49.065,160.526 51.454,156.954 55.158 C 153.803 58.426,152.601 60.415,148.582 69.003 C 144.498 77.731,138.670 81.375,128.794 81.375 C 127.679 81.375,126.691 81.498,126.598 81.649 C 126.503 81.804,125.198 81.924,123.626 81.924 C 120.522 81.923,114.930 82.427,114.502 82.747 C 114.351 82.860,113.734 83.041,113.132 83.150 C 112.163 83.325,110.334 84.121,107.955 85.403 C 107.529 85.632,107.114 85.995,107.032 86.209 C 106.950 86.423,106.725 86.598,106.532 86.598 C 105.207 86.598,101.230 92.941,100.326 96.495 C 99.777 98.658,100.170 108.098,100.904 110.341 C 101.046 110.774,101.296 112.806,101.460 114.856 C 102.174 123.803,100.460 127.489,92.100 134.983 C 88.271 138.414,87.469 139.329,86.273 141.623 C 84.673 144.692,85.033 150.755,87.038 154.502 C 87.240 154.880,87.592 155.622,87.821 156.151 C 88.322 157.312,88.593 157.744,90.103 159.795 C 90.746 160.667,91.271 161.454,91.271 161.544 C 91.271 161.633,92.106 162.714,93.126 163.946 C 94.146 165.178,95.077 166.309,95.194 166.460 C 95.310 166.612,96.208 167.748,97.188 168.985 C 98.167 170.222,98.969 171.303,98.969 171.387 C 98.969 171.472,99.464 172.253,100.068 173.124 C 100.673 173.995,101.168 174.852,101.168 175.029 C 101.168 175.205,101.430 175.947,101.749 176.678 C 103.098 179.765,103.563 182.615,103.917 189.966 C 104.243 196.727,104.668 202.116,105.002 203.711 C 105.610 206.617,106.123 208.683,106.348 209.136 C 106.482 209.403,106.984 210.426,107.466 211.409 C 109.973 216.530,113.385 219.773,117.912 221.341 C 120.809 222.344,128.231 221.739,131.019 220.272 C 131.309 220.120,132.058 219.910,132.683 219.807 C 134.838 219.450,134.983 219.113,134.983 214.439 C 134.983 212.004,134.871 210.273,134.708 210.172 C 134.532 210.063,134.433 205.932,134.434 198.678 C 134.435 187.408,134.074 177.680,133.616 176.632 C 133.484 176.330,133.235 174.740,133.064 173.099 C 132.893 171.458,132.644 169.911,132.511 169.662 C 132.379 169.413,132.129 168.405,131.957 167.423 C 131.643 165.635,131.471 165.019,130.177 161.028 C 129.796 159.855,129.485 158.699,129.485 158.458 C 129.485 158.218,129.313 157.631,129.103 157.155 C 128.390 155.533,127.575 153.267,127.308 152.165 C 127.161 151.560,126.859 150.509,126.636 149.828 C 125.363 145.949,125.244 145.472,124.233 140.206 C 123.865 138.286,124.015 130.805,124.432 130.282 C 124.601 130.070,124.894 129.417,125.083 128.830 C 125.974 126.068,128.754 124.126,131.821 124.125 C 135.245 124.123,136.294 125.204,137.896 130.383 C 140.008 137.210,141.131 139.111,142.589 138.331 C 143.064 138.077,144.345 134.866,144.334 133.957 C 144.332 133.771,144.882 133.338,145.556 132.995 C 146.948 132.286,152.363 129.572,153.402 129.062 C 154.265 128.638,156.732 128.110,157.850 128.110 L 158.697 128.110 158.483 129.416 C 157.706 134.155,159.113 142.551,160.785 143.159 C 161.034 143.250,161.587 143.612,162.014 143.964 C 162.442 144.317,163.022 144.605,163.304 144.605 C 163.586 144.605,163.887 144.720,163.974 144.860 C 164.393 145.537,176.150 146.242,180.619 145.858 C 185.354 145.451,188.479 145.079,188.729 144.893 C 188.880 144.780,189.808 144.526,190.790 144.330 C 191.773 144.133,192.701 143.885,192.852 143.778 C 193.003 143.671,193.684 143.391,194.364 143.157 C 195.045 142.922,196.653 142.338,197.938 141.859 C 204.198 139.525,208.763 139.595,216.907 142.150 C 220.864 143.391,229.118 143.545,232.529 142.441 C 234.819 141.700,238.053 138.455,239.552 135.395 C 239.950 134.581,240.392 133.843,240.533 133.756 C 240.673 133.669,240.986 132.920,241.227 132.091 C 241.706 130.442,241.929 130.265,242.340 131.203 C 243.036 132.788,244.802 131.955,245.739 129.600 C 246.278 128.246,249.275 125.505,251.271 124.541 C 252.254 124.067,253.303 123.543,253.602 123.378 C 256.057 122.025,261.756 123.300,262.459 125.361 C 263.013 126.987,262.655 133.089,261.894 134.983 C 261.803 135.210,261.548 136.385,261.326 137.595 C 261.105 138.804,260.604 140.969,260.214 142.405 C 259.824 143.842,259.315 145.821,259.083 146.804 C 258.851 147.787,258.547 148.838,258.407 149.141 C 258.268 149.443,257.733 150.990,257.219 152.577 C 256.263 155.529,254.544 160.309,253.906 161.787 C 253.711 162.241,253.302 163.168,252.999 163.849 C 252.695 164.529,251.980 166.137,251.410 167.423 C 250.310 169.899,247.574 175.730,247.103 176.600 C 246.378 177.939,244.124 184.511,244.124 185.285 C 244.124 185.682,243.997 186.134,243.842 186.289 C 243.127 187.004,242.947 202.491,243.643 203.368 C 244.054 203.885,244.800 203.782,245.387 203.126 C 245.880 202.574,246.265 202.290,248.909 200.519 C 250.500 199.454,254.573 198.421,255.672 198.805 C 256.142 198.969,257.018 199.024,257.617 198.929 C 258.749 198.748,262.317 199.504,263.827 200.245 C 264.255 200.455,265.285 200.957,266.117 201.360 C 266.948 201.764,269.240 202.924,271.209 203.938 C 273.179 204.952,275.344 205.957,276.020 206.171 C 276.697 206.384,277.379 206.654,277.535 206.769 C 278.775 207.684,284.263 207.519,286.323 206.504 C 287.620 205.865,290.842 202.611,291.538 201.237 C 291.806 200.708,292.174 200.089,292.355 199.863 C 292.537 199.636,292.854 198.893,293.059 198.213 C 293.264 197.533,293.565 196.802,293.726 196.590 C 294.129 196.062,294.116 189.345,293.712 188.839 C 293.543 188.627,293.317 187.959,293.209 187.354 C 293.101 186.749,292.847 185.883,292.645 185.430 C 292.443 184.976,292.194 184.296,292.092 183.918 C 291.990 183.540,291.468 182.117,290.933 180.756 C 288.348 174.181,288.053 166.525,290.222 162.337 C 290.378 162.034,290.958 160.859,291.510 159.725 C 292.772 157.129,293.991 154.966,295.768 152.165 C 297.226 149.866,300.756 143.031,300.756 142.506 C 300.756 142.339,301.024 141.413,301.353 140.448 C 302.799 136.193,301.918 128.865,299.489 124.961 C 297.867 122.354,293.879 117.349,293.255 117.138 C 293.071 117.076,291.814 115.993,290.461 114.733 C 289.108 113.472,287.850 112.440,287.666 112.440 C 287.482 112.440,287.290 112.347,287.239 112.234 C 287.078 111.870,285.028 110.661,282.062 109.178 C 280.474 108.385,278.990 107.627,278.763 107.493 C 278.536 107.359,277.423 106.801,276.289 106.253 C 274.008 105.151,271.039 103.403,270.277 102.714 C 270.006 102.469,269.707 102.268,269.611 102.268 C 267.032 102.268,263.674 92.198,265.238 89.153 C 265.378 88.882,265.576 88.103,265.680 87.423 C 265.784 86.742,266.157 85.196,266.510 83.986 C 267.534 80.474,267.766 79.275,267.766 77.505 C 267.766 75.832,267.142 73.343,266.530 72.577 C 266.349 72.351,266.119 71.935,266.018 71.654 C 265.204 69.369,258.797 64.044,255.533 62.938 C 254.928 62.733,254.292 62.464,254.120 62.340 C 252.865 61.435,241.477 60.544,240.728 61.292 C 240.570 61.451,240.001 61.587,239.464 61.595 C 238.038 61.616,231.133 63.035,230.378 63.462 C 230.151 63.590,229.285 63.854,228.454 64.049 C 227.622 64.243,226.722 64.516,226.453 64.655 C 224.396 65.717,216.881 66.270,213.058 65.640 C 209.848 65.112,209.506 64.999,206.186 63.368 C 203.471 62.035,203.317 61.941,200.604 59.937 C 199.575 59.178,198.680 58.557,198.614 58.557 C 198.548 58.557,197.781 58.017,196.910 57.356 C 191.739 53.438,186.676 50.887,180.246 48.960 C 178.014 48.292,172.126 47.992,169.347 48.405 M205.636 94.820 C 206.984 95.082,209.341 95.593,210.859 95.954 C 213.538 96.590,219.568 99.328,221.494 100.782 C 221.975 101.146,222.488 101.443,222.633 101.443 C 222.778 101.443,222.973 101.643,223.067 101.887 C 223.210 102.261,223.094 102.302,222.340 102.148 C 215.205 100.691,193.601 100.108,181.168 101.038 C 174.993 101.500,172.310 101.766,171.631 101.982 C 170.638 102.300,167.686 102.510,167.845 102.252 C 168.028 101.955,172.096 99.692,173.196 99.275 C 174.168 98.907,174.904 98.599,176.907 97.726 C 178.168 97.176,180.931 96.418,183.918 95.802 C 185.052 95.568,186.477 95.249,187.086 95.093 C 189.991 94.347,202.275 94.166,205.636 94.820 M224.880 105.989 C 234.836 106.897,235.156 106.956,236.232 108.083 C 237.741 109.661,238.425 112.715,237.270 112.715 C 236.936 112.715,236.707 112.494,236.651 112.118 C 236.531 111.299,234.972 110.452,234.158 110.765 C 233.818 110.896,232.749 111.149,231.783 111.328 C 230.817 111.506,229.766 111.818,229.446 112.020 C 228.385 112.691,226.298 112.890,226.840 112.267 C 228.292 110.602,226.396 108.238,224.729 109.635 C 224.585 109.755,223.973 110.011,223.368 110.204 C 222.763 110.397,221.897 110.718,221.443 110.917 C 218.997 111.991,218.332 112.220,216.583 112.588 C 212.831 113.377,212.314 113.078,214.245 111.235 C 214.898 110.613,216.144 109.423,217.015 108.591 C 217.926 107.721,218.662 106.758,218.749 106.323 C 218.929 105.424,218.776 105.433,224.880 105.989 M157.730 115.003 L 157.798 119.487 156.014 120.117 C 155.033 120.463,153.061 121.335,151.631 122.054 L 149.032 123.361 149.774 121.987 C 150.182 121.232,150.691 120.290,150.904 119.894 C 151.118 119.499,151.768 118.531,152.348 117.744 C 152.928 116.956,153.402 116.232,153.402 116.134 C 153.402 115.890,155.397 113.358,156.570 112.112 C 157.096 111.554,157.526 110.967,157.526 110.806 C 157.526 110.646,157.557 110.516,157.595 110.517 C 157.632 110.518,157.693 112.536,157.730 115.003 M185.842 111.070 C 185.842 111.223,185.124 112.244,184.245 113.338 C 179.638 119.078,179.952 123.183,184.894 121.818 C 186.005 121.511,186.066 121.312,184.346 123.599 C 183.902 124.190,182.674 125.416,181.617 126.323 C 180.560 127.230,179.099 128.554,178.370 129.265 C 175.545 132.021,177.550 134.433,181.443 132.961 C 182.921 132.403,184.549 131.701,185.122 131.377 C 187.519 130.020,188.461 130.359,186.781 131.974 C 185.632 133.078,184.916 134.323,185.122 134.860 C 185.359 135.478,183.875 135.591,176.865 135.486 C 169.634 135.378,168.488 135.140,167.944 133.635 C 167.802 133.242,167.569 132.674,167.425 132.371 C 167.041 131.562,166.630 126.312,166.421 119.519 L 166.236 113.540 167.225 113.540 C 167.770 113.540,168.291 113.416,168.385 113.265 C 168.675 112.795,169.347 112.963,169.347 113.506 C 169.347 114.429,170.158 115.992,170.884 116.468 C 171.765 117.045,172.274 116.891,176.907 114.648 C 178.722 113.770,181.196 112.642,182.405 112.141 C 183.615 111.640,184.722 111.131,184.866 111.010 C 185.235 110.700,185.842 110.737,185.842 111.070 M221.450 150.364 C 221.220 150.810,221.031 151.692,221.031 152.323 L 221.031 153.471 220.138 153.292 C 219.647 153.194,217.972 153.036,216.417 152.941 C 214.861 152.845,213.524 152.663,213.445 152.535 C 213.256 152.230,198.014 152.231,197.826 152.536 C 197.747 152.665,196.409 152.853,194.855 152.954 C 193.300 153.054,191.347 153.266,190.515 153.423 C 189.684 153.581,187.828 153.928,186.392 154.195 C 184.955 154.462,183.595 154.755,183.368 154.848 C 182.935 155.023,180.208 155.601,179.811 155.601 C 179.684 155.601,179.498 155.166,179.398 154.633 C 178.838 151.643,174.845 150.447,174.845 153.268 C 174.845 153.671,175.153 154.134,175.663 154.497 C 177.175 155.573,177.433 158.608,176.198 160.805 C 175.198 162.584,175.830 164.144,177.392 163.752 C 178.308 163.522,179.198 162.063,179.423 160.421 C 179.632 158.895,180.418 158.423,183.780 157.806 C 184.838 157.612,185.828 157.362,185.979 157.251 C 186.131 157.139,186.811 156.972,187.491 156.879 C 188.172 156.786,189.347 156.578,190.103 156.416 C 196.461 155.057,211.727 154.780,218.419 155.902 C 219.326 156.054,220.471 156.247,220.962 156.332 C 221.454 156.417,221.856 156.605,221.856 156.750 C 221.856 158.027,225.308 161.100,226.742 161.100 C 228.253 161.100,228.960 159.581,227.863 158.691 C 224.566 156.019,224.059 155.146,224.057 152.139 C 224.054 149.643,222.404 148.520,221.450 150.364 M200.288 158.054 C 200.202 158.194,199.767 158.388,199.322 158.486 C 197.488 158.889,196.408 160.834,197.443 161.869 C 197.960 162.386,199.771 162.257,201.032 161.614 C 202.247 160.994,205.939 161.018,206.572 161.651 C 207.524 162.603,209.759 161.349,209.759 159.861 C 209.759 158.151,208.832 157.801,204.304 157.801 C 202.181 157.801,200.374 157.915,200.288 158.054 " stroke="none" fill="#000000" fill-rule="evenodd"></path><path id="path1" d="" stroke="none" fill="#030304" fill-rule="evenodd"></path></g></svg>