<svg id="svg" version="1.1" width="400" height="274.9090909090909" viewBox="0 0 400 274.9090909090909" xmlns="http://www.w3.org/2000/svg" xmlns:xlink="http://www.w3.org/1999/xlink" ><g id="svgg"><path id="path0" d="M170.841 47.865 C 170.784 47.957,170.022 48.107,169.149 48.199 C 167.202 48.404,166.830 48.479,166.392 48.752 C 166.203 48.871,166.048 48.895,166.048 48.808 C 166.048 48.720,165.569 48.893,164.982 49.192 C 164.396 49.491,163.840 49.659,163.745 49.564 C 163.651 49.470,163.574 49.545,163.574 49.730 C 163.574 49.915,163.450 49.990,163.299 49.897 C 163.148 49.803,163.024 49.850,163.024 50.000 C 163.024 50.268,162.212 50.640,161.905 50.512 C 161.818 50.476,161.544 50.632,161.296 50.859 C 160.446 51.634,160.023 51.959,159.862 51.959 C 159.413 51.959,154.502 56.873,154.502 57.321 C 154.502 57.475,154.162 57.967,153.746 58.415 C 153.330 58.864,152.990 59.320,152.990 59.430 C 152.990 59.539,152.835 59.784,152.646 59.973 C 152.457 60.162,152.302 60.477,152.302 60.674 C 152.302 60.870,152.199 61.031,152.072 61.031 C 151.851 61.031,149.553 65.494,149.553 65.924 C 149.553 66.040,149.114 66.962,148.577 67.974 C 148.040 68.985,147.552 70.066,147.492 70.375 C 147.432 70.684,147.191 71.130,146.956 71.365 C 146.721 71.600,146.529 71.912,146.529 72.059 C 146.529 72.206,146.227 72.653,145.857 73.052 C 145.487 73.451,145.235 73.860,145.298 73.962 C 145.447 74.202,142.007 77.526,141.609 77.526 C 141.442 77.526,141.306 77.657,141.306 77.817 C 141.306 77.977,141.182 78.032,141.031 77.938 C 140.880 77.845,140.756 77.884,140.756 78.026 C 140.756 78.300,139.111 79.076,138.763 78.966 C 138.649 78.930,138.557 79.012,138.557 79.148 C 138.557 79.386,135.886 80.171,135.464 80.056 C 135.351 80.025,135.258 80.138,135.258 80.307 C 135.258 80.488,135.009 80.549,134.653 80.456 C 134.321 80.369,133.919 80.403,133.760 80.531 C 133.435 80.792,130.834 81.069,128.041 81.140 C 127.021 81.165,126.186 81.300,126.186 81.439 C 126.186 81.581,124.703 81.680,122.818 81.666 C 119.971 81.643,117.686 81.814,114.777 82.267 C 114.474 82.314,114.064 82.454,113.865 82.578 C 113.666 82.703,113.439 82.741,113.361 82.663 C 113.284 82.585,112.710 82.750,112.086 83.029 C 111.462 83.308,110.854 83.476,110.734 83.401 C 110.614 83.327,110.515 83.405,110.515 83.574 C 110.515 83.743,110.392 83.805,110.241 83.711 C 110.089 83.618,109.966 83.664,109.966 83.814 C 109.966 84.058,109.523 84.285,108.729 84.449 C 108.423 84.512,108.227 84.661,106.944 85.807 C 106.457 86.242,105.894 86.598,105.693 86.598 C 105.492 86.598,104.746 87.464,104.036 88.522 C 103.326 89.581,102.645 90.447,102.524 90.447 C 102.271 90.447,100.632 93.675,100.484 94.463 C 100.430 94.749,100.365 94.983,100.339 94.983 C 100.314 94.983,100.234 95.416,100.161 95.945 C 100.088 96.474,99.914 97.025,99.774 97.168 C 99.453 97.497,99.435 105.208,99.755 105.406 C 99.885 105.486,100.079 106.514,100.185 107.690 C 100.474 110.878,100.626 111.932,100.939 112.940 C 101.335 114.211,101.352 121.646,100.961 122.118 C 100.792 122.322,100.594 122.856,100.521 123.306 C 100.448 123.756,100.363 124.155,100.332 124.192 C 100.301 124.230,100.253 124.354,100.227 124.467 C 100.038 125.283,99.715 125.911,99.484 125.911 C 99.334 125.911,99.283 126.027,99.371 126.169 C 99.459 126.311,99.342 126.532,99.112 126.661 C 98.882 126.790,98.460 127.353,98.175 127.913 C 97.629 128.984,97.064 129.668,95.258 131.449 C 91.336 135.316,90.240 136.306,89.691 136.477 C 89.351 136.583,89.072 136.838,89.072 137.044 C 89.072 137.249,88.503 138.012,87.808 138.737 C 86.710 139.884,84.966 142.680,85.349 142.680 C 85.424 142.680,85.355 143.021,85.197 143.436 C 84.888 144.250,84.700 149.279,84.979 149.279 C 85.072 149.278,85.288 150.052,85.460 150.997 C 85.839 153.086,85.842 153.097,86.327 153.952 C 86.541 154.330,86.736 154.732,86.760 154.845 C 86.784 154.959,86.834 155.144,86.871 155.258 C 86.908 155.371,86.923 155.557,86.905 155.670 C 86.888 155.784,86.988 155.876,87.129 155.876 C 87.382 155.876,87.710 156.607,87.671 157.083 C 87.660 157.217,87.771 157.403,87.918 157.495 C 88.064 157.588,88.557 158.296,89.012 159.070 C 89.829 160.458,90.131 160.870,91.615 162.618 C 92.031 163.108,92.371 163.644,92.371 163.810 C 92.371 163.976,92.684 164.316,93.067 164.567 C 93.450 164.818,93.700 165.085,93.624 165.162 C 93.548 165.238,93.884 165.653,94.371 166.082 C 94.859 166.512,95.175 166.866,95.073 166.868 C 94.972 166.871,95.374 167.378,95.968 167.996 C 96.562 168.614,96.993 169.209,96.926 169.317 C 96.859 169.425,97.233 170.002,97.756 170.599 C 99.100 172.130,99.155 172.207,99.366 172.872 C 99.470 173.199,99.705 173.623,99.889 173.813 C 100.610 174.557,102.780 180.510,102.595 181.237 C 102.567 181.351,102.672 181.443,102.829 181.443 C 102.986 181.443,103.107 181.969,103.098 182.612 C 103.089 183.254,103.199 184.893,103.343 186.254 C 103.487 187.615,103.626 190.368,103.652 192.371 C 103.679 194.501,103.809 196.014,103.964 196.014 C 104.116 196.014,104.220 196.989,104.207 198.282 C 104.184 200.606,104.597 204.624,104.934 205.361 C 105.038 205.588,105.142 205.897,105.165 206.048 C 105.189 206.199,105.279 206.509,105.365 206.735 C 105.452 206.962,105.597 207.519,105.687 207.973 C 105.923 209.152,105.970 209.307,106.210 209.691 C 106.328 209.880,106.348 210.034,106.254 210.034 C 106.039 210.034,107.827 213.439,108.108 213.562 C 108.222 213.613,108.316 213.766,108.316 213.903 C 108.316 214.040,108.533 214.405,108.797 214.714 C 109.062 215.023,109.278 215.377,109.278 215.502 C 109.278 216.004,112.628 219.148,113.732 219.683 C 114.382 219.998,114.914 220.375,114.914 220.522 C 114.914 220.668,115.038 220.712,115.189 220.619 C 115.340 220.525,115.464 220.580,115.464 220.740 C 115.464 220.900,115.557 221.018,115.670 221.001 C 116.045 220.947,117.113 221.366,117.113 221.567 C 117.113 221.855,117.421 221.887,121.649 222.031 C 125.450 222.162,126.025 222.093,129.897 221.047 C 130.351 220.924,130.904 220.778,131.127 220.721 C 131.351 220.665,131.692 220.471,131.887 220.291 C 132.081 220.111,132.781 219.883,133.441 219.784 C 134.679 219.598,134.874 219.084,134.087 218.079 C 133.926 217.872,133.776 211.697,133.706 202.409 C 133.643 193.977,133.480 186.460,133.343 185.704 C 133.206 184.948,132.958 182.289,132.791 179.794 C 132.625 177.299,132.379 174.825,132.244 174.296 C 132.109 173.766,131.794 172.065,131.545 170.515 C 131.296 168.964,130.590 166.057,129.977 164.054 C 129.363 162.051,128.578 159.485,128.231 158.351 C 127.884 157.216,127.291 155.423,126.913 154.364 C 120.187 135.555,122.153 122.887,131.797 122.887 C 135.810 122.887,137.476 124.711,139.367 131.173 C 140.323 134.441,141.553 137.235,141.977 137.101 C 142.137 137.051,142.601 135.988,143.008 134.738 C 143.414 133.489,143.859 132.322,143.996 132.144 C 144.134 131.967,144.656 130.616,145.157 129.144 C 145.782 127.306,146.265 126.337,146.698 126.053 C 147.087 125.798,147.397 125.244,147.508 124.607 C 148.739 117.536,160.534 104.635,170.584 99.366 C 175.489 96.795,177.407 96.164,186.942 93.991 C 190.610 93.155,202.555 93.002,205.911 93.748 C 206.591 93.899,207.864 94.149,208.738 94.304 C 212.802 95.023,219.944 98.121,223.223 100.587 C 224.050 101.209,224.820 101.718,224.934 101.718 C 225.048 101.718,225.345 102.120,225.595 102.612 C 225.845 103.103,226.094 103.555,226.149 103.617 C 226.203 103.678,227.332 103.888,228.657 104.083 C 238.495 105.534,238.838 105.747,239.987 111.107 C 240.740 114.619,241.145 119.307,241.060 123.531 C 240.994 126.838,241.026 127.091,241.568 127.517 C 241.886 127.768,242.421 128.622,242.756 129.416 C 243.522 131.227,243.658 131.218,244.647 129.278 C 247.507 123.672,255.866 120.250,261.007 122.581 C 264.426 124.131,264.750 126.849,262.698 136.770 C 262.093 139.694,261.219 143.352,260.760 144.880 C 260.556 145.560,260.118 147.045,259.788 148.179 C 257.476 156.109,253.910 165.233,250.172 172.784 C 245.617 181.984,244.024 187.841,244.116 195.052 C 244.191 200.913,244.439 202.850,245.177 203.321 C 245.580 203.579,245.831 203.703,245.733 203.596 C 245.545 203.391,246.651 202.062,247.010 202.062 C 247.126 202.062,247.421 201.845,247.665 201.581 C 248.180 201.024,251.087 199.589,252.096 199.393 C 253.112 199.197,253.608 199.084,253.608 199.049 C 253.608 198.994,258.001 198.977,258.144 199.031 C 258.220 199.060,258.653 199.139,259.107 199.207 C 259.560 199.275,260.381 199.505,260.931 199.719 C 261.481 199.933,262.007 200.032,262.099 199.939 C 262.192 199.847,262.268 199.923,262.268 200.108 C 262.268 200.293,262.366 200.384,262.485 200.311 C 262.684 200.187,263.870 200.624,265.102 201.274 C 265.375 201.419,266.330 201.908,267.225 202.363 C 268.119 202.817,268.924 203.308,269.015 203.455 C 269.105 203.601,269.294 203.649,269.435 203.562 C 269.576 203.475,269.691 203.556,269.691 203.741 C 269.691 203.926,269.766 204.002,269.858 203.910 C 269.951 203.818,270.507 204.046,271.095 204.418 C 271.684 204.789,272.165 205.022,272.165 204.936 C 272.165 204.729,273.895 205.696,274.154 206.048 C 274.265 206.199,274.358 206.228,274.360 206.111 C 274.362 205.995,274.863 206.154,275.473 206.465 C 276.083 206.776,276.702 206.957,276.848 206.867 C 276.994 206.777,277.113 206.813,277.113 206.948 C 277.113 207.220,277.092 207.215,279.523 207.456 C 280.471 207.550,281.313 207.736,281.395 207.868 C 281.592 208.186,282.497 208.177,283.097 207.850 C 283.585 207.584,285.608 207.156,285.979 207.239 C 286.093 207.264,286.186 207.170,286.186 207.029 C 286.186 206.808,287.063 206.378,287.598 206.337 C 287.942 206.310,290.847 203.292,290.853 202.955 C 290.856 202.766,290.960 202.612,291.083 202.612 C 291.207 202.612,291.600 202.086,291.956 201.443 C 292.313 200.801,292.738 200.184,292.900 200.073 C 293.063 199.962,293.101 199.869,292.984 199.867 C 292.868 199.864,293.025 199.368,293.333 198.763 C 293.642 198.158,293.815 197.663,293.718 197.663 C 293.620 197.663,293.711 197.459,293.918 197.209 C 294.280 196.773,294.438 189.994,294.112 188.866 C 293.773 187.689,292.982 185.102,292.851 184.742 C 292.768 184.515,292.670 184.206,292.632 184.055 C 292.594 183.904,292.407 183.409,292.215 182.955 C 292.024 182.502,291.855 182.069,291.840 181.993 C 291.825 181.918,291.715 181.701,291.595 181.512 C 291.475 181.323,291.444 181.168,291.527 181.168 C 291.609 181.168,291.376 180.488,291.008 179.656 C 290.640 178.825,290.389 178.144,290.450 178.144 C 290.510 178.144,290.370 177.619,290.138 176.976 C 289.710 175.790,289.475 174.823,289.406 173.952 C 289.385 173.687,289.270 173.471,289.151 173.471 C 289.032 173.471,288.935 172.048,288.935 170.309 C 288.935 168.385,289.042 167.148,289.210 167.148 C 289.361 167.148,289.461 167.055,289.433 166.942 C 289.318 166.482,289.854 164.235,290.208 163.695 C 290.416 163.378,290.503 163.035,290.402 162.933 C 290.301 162.832,290.383 162.749,290.584 162.749 C 290.786 162.749,290.874 162.673,290.781 162.579 C 290.599 162.397,292.515 158.415,293.359 157.220 C 293.639 156.825,293.788 156.423,293.692 156.326 C 293.595 156.230,293.668 156.151,293.854 156.151 C 294.039 156.151,294.117 156.032,294.027 155.886 C 293.937 155.741,294.105 155.380,294.400 155.084 C 294.695 154.789,294.865 154.475,294.777 154.387 C 294.688 154.299,294.768 154.227,294.953 154.227 C 295.139 154.227,295.213 154.102,295.119 153.950 C 295.025 153.798,295.132 153.603,295.356 153.516 C 295.581 153.430,295.952 152.891,296.182 152.318 C 296.411 151.745,296.823 151.052,297.097 150.778 C 297.370 150.504,297.601 150.209,297.608 150.123 C 297.655 149.579,298.087 148.729,298.317 148.729 C 298.466 148.729,298.513 148.605,298.419 148.454 C 298.326 148.302,298.380 148.179,298.540 148.179 C 298.701 148.179,298.817 148.086,298.799 147.973 C 298.721 147.475,298.861 147.089,299.269 146.681 C 299.510 146.440,299.734 146.091,299.767 145.905 C 299.922 145.035,300.271 144.330,300.545 144.330 C 300.712 144.330,300.772 144.255,300.680 144.162 C 300.588 144.070,300.765 143.359,301.073 142.582 C 301.771 140.820,301.870 140.421,302.053 138.620 C 302.133 137.824,302.308 137.105,302.440 137.023 C 302.752 136.831,302.752 133.559,302.440 132.733 C 302.308 132.383,302.125 131.466,302.032 130.695 C 301.939 129.924,301.652 128.811,301.395 128.221 C 301.137 127.631,300.904 127.055,300.876 126.942 C 300.848 126.828,300.800 126.704,300.769 126.667 C 300.739 126.629,300.671 126.368,300.617 126.087 C 300.564 125.806,300.243 125.280,299.903 124.919 C 299.564 124.557,299.374 124.261,299.482 124.261 C 299.590 124.261,299.426 123.990,299.117 123.660 C 298.809 123.329,298.557 122.890,298.557 122.684 C 298.557 122.479,298.229 122.007,297.829 121.636 C 297.429 121.266,297.183 120.962,297.283 120.962 C 297.476 120.962,296.015 119.332,294.433 117.784 C 291.375 114.791,290.066 113.599,289.957 113.708 C 289.889 113.776,289.629 113.518,289.378 113.136 C 289.127 112.753,288.794 112.440,288.637 112.440 C 288.481 112.440,287.861 112.044,287.259 111.561 C 286.658 111.078,285.989 110.656,285.773 110.625 C 285.557 110.593,285.022 110.312,284.584 110.000 C 284.145 109.687,283.708 109.511,283.612 109.607 C 283.515 109.704,283.436 109.631,283.436 109.445 C 283.436 109.260,283.327 109.176,283.194 109.258 C 283.060 109.341,282.644 109.167,282.268 108.871 C 281.893 108.576,281.507 108.413,281.411 108.508 C 281.316 108.604,281.237 108.518,281.237 108.316 C 281.237 108.115,281.160 108.027,281.065 108.122 C 280.861 108.326,279.313 107.571,279.313 107.268 C 279.313 107.153,279.051 107.039,278.732 107.015 C 278.413 106.991,277.939 106.779,277.679 106.543 C 277.419 106.308,277.123 106.198,277.022 106.300 C 276.921 106.401,276.838 106.318,276.838 106.117 C 276.838 105.915,276.759 105.830,276.662 105.926 C 276.476 106.113,274.905 105.333,274.592 104.899 C 274.491 104.759,274.194 104.612,273.933 104.574 C 273.671 104.535,273.354 104.341,273.228 104.142 C 273.101 103.943,272.992 103.904,272.985 104.055 C 272.978 104.206,272.821 104.135,272.637 103.897 C 272.453 103.659,271.684 103.114,270.928 102.685 C 268.357 101.226,265.842 97.910,265.842 95.979 C 265.842 95.676,265.731 95.359,265.597 95.276 C 265.298 95.091,265.274 89.871,265.570 89.485 C 265.686 89.333,265.870 88.529,265.980 87.698 C 266.090 86.866,266.300 85.958,266.446 85.680 C 266.592 85.402,266.767 84.846,266.835 84.443 C 266.903 84.041,267.159 83.216,267.404 82.612 C 268.109 80.873,268.244 75.425,267.615 74.100 C 267.346 73.531,267.125 72.894,267.125 72.684 C 267.125 72.474,267.048 72.302,266.955 72.302 C 266.709 72.302,265.832 70.755,265.989 70.597 C 266.171 70.416,262.091 66.254,261.731 66.254 C 261.573 66.254,261.443 66.132,261.443 65.983 C 261.443 65.834,261.010 65.531,260.481 65.310 C 259.952 65.089,259.519 64.778,259.519 64.619 C 259.519 64.460,259.333 64.330,259.107 64.330 C 258.880 64.330,258.694 64.233,258.694 64.114 C 258.694 63.924,255.594 62.323,255.053 62.234 C 254.939 62.215,254.784 62.168,254.708 62.131 C 254.469 62.011,254.189 61.945,252.990 61.725 C 252.347 61.607,251.821 61.414,251.821 61.296 C 251.821 61.179,251.573 61.147,251.270 61.227 C 250.967 61.306,250.560 61.239,250.366 61.078 C 249.906 60.697,240.358 60.674,240.123 61.054 C 240.031 61.203,239.502 61.315,238.947 61.302 C 238.392 61.288,237.320 61.412,236.564 61.575 C 235.808 61.739,235.003 61.903,234.777 61.941 C 234.550 61.978,234.221 62.099,234.045 62.208 C 233.870 62.318,233.530 62.332,233.289 62.240 C 233.049 62.147,232.852 62.193,232.852 62.341 C 232.852 62.489,232.206 62.695,231.416 62.800 C 230.626 62.905,229.822 63.122,229.629 63.282 C 229.436 63.442,229.278 63.491,229.278 63.392 C 229.278 63.292,229.021 63.348,228.707 63.517 C 227.918 63.939,225.347 64.586,225.090 64.428 C 224.974 64.356,224.880 64.417,224.880 64.563 C 224.880 64.709,224.230 64.911,223.436 65.013 C 222.643 65.115,221.684 65.245,221.306 65.302 C 220.928 65.359,220.093 65.436,219.450 65.472 C 218.808 65.508,218.282 65.613,218.282 65.706 C 218.282 65.798,217.385 65.781,216.289 65.668 C 212.628 65.289,210.034 64.815,210.034 64.525 C 210.034 64.367,209.953 64.320,209.853 64.419 C 209.754 64.519,209.507 64.462,209.304 64.294 C 209.101 64.125,208.935 64.068,208.935 64.166 C 208.935 64.264,208.565 64.153,208.113 63.919 C 207.661 63.685,207.197 63.487,207.082 63.480 C 206.781 63.459,204.979 62.342,204.780 62.053 C 204.688 61.919,204.533 61.819,204.437 61.832 C 203.906 61.903,203.665 61.783,202.847 61.036 C 202.354 60.585,201.550 60.026,201.063 59.795 C 200.210 59.390,199.747 59.043,197.855 57.388 C 197.380 56.973,196.855 56.632,196.690 56.632 C 196.524 56.632,195.902 56.198,195.308 55.668 C 194.713 55.138,193.982 54.626,193.682 54.530 C 193.062 54.331,191.524 53.300,191.386 52.990 C 191.336 52.876,191.076 52.784,190.810 52.784 C 190.543 52.784,190.039 52.536,189.691 52.234 C 189.342 51.931,188.837 51.684,188.569 51.684 C 188.300 51.684,187.884 51.487,187.643 51.246 C 187.239 50.842,186.748 50.658,185.930 50.605 C 185.752 50.594,185.406 50.384,185.161 50.139 C 184.916 49.894,184.641 49.770,184.548 49.862 C 184.456 49.954,184.240 49.913,184.069 49.771 C 183.898 49.629,183.333 49.438,182.814 49.346 C 182.295 49.255,181.788 49.047,181.687 48.885 C 181.587 48.722,181.367 48.674,181.199 48.778 C 181.031 48.882,180.739 48.871,180.550 48.752 C 179.554 48.130,171.151 47.362,170.841 47.865 " stroke="none" fill="#340068" fill-rule="evenodd"></path><path id="path1" d="M190.271 93.482 C 188.852 93.618,187.625 93.796,187.545 93.876 C 187.465 93.956,188.564 93.928,189.988 93.815 C 193.181 93.560,201.388 93.546,204.536 93.789 C 206.210 93.918,206.561 93.898,205.773 93.718 C 204.185 93.355,193.306 93.189,190.271 93.482 M207.300 94.310 C 207.518 94.449,208.024 94.564,208.423 94.566 C 210.060 94.576,214.255 96.057,218.144 98.000 C 223.726 100.787,226.896 103.368,224.739 103.368 C 223.914 103.368,214.258 102.317,213.471 102.142 C 209.014 101.149,183.324 101.504,173.726 102.692 C 167.293 103.488,166.516 103.735,164.278 105.700 C 163.328 106.534,162.423 107.216,162.266 107.216 C 161.853 107.216,160.378 108.970,159.658 110.317 C 159.089 111.381,159.038 111.840,159.038 115.820 L 159.038 120.163 157.100 120.818 C 156.035 121.178,153.639 122.222,151.777 123.138 C 147.437 125.274,147.171 125.153,148.858 121.802 C 155.175 109.258,168.104 98.688,180.852 95.645 C 181.510 95.488,182.000 95.311,181.941 95.251 C 181.121 94.432,170.747 98.863,165.900 102.103 C 158.159 107.278,148.459 119.147,147.508 124.607 C 147.397 125.244,147.087 125.798,146.698 126.053 C 146.265 126.337,145.782 127.306,145.157 129.144 C 144.656 130.616,144.134 131.967,143.996 132.144 C 143.859 132.322,143.414 133.489,143.008 134.738 C 142.117 137.472,141.873 137.606,141.034 135.815 C 140.679 135.056,140.339 134.484,140.279 134.544 C 140.218 134.604,140.489 135.284,140.880 136.055 C 141.983 138.232,142.444 137.972,143.355 134.657 C 143.896 132.692,144.201 132.451,149.405 129.894 C 153.697 127.785,156.046 127.010,158.150 127.010 C 159.943 127.010,160.095 127.319,159.874 130.511 C 159.494 136.009,160.364 140.737,162.024 142.197 C 163.689 143.660,173.592 145.211,178.282 144.742 C 188.210 143.750,189.183 143.549,195.809 141.109 C 199.752 139.657,202.895 138.953,206.871 138.634 C 208.890 138.471,211.135 138.933,217.320 140.783 C 222.297 142.272,231.458 142.040,233.644 140.370 C 235.963 138.597,240.339 132.234,240.697 130.114 C 241.126 127.572,241.583 127.453,242.576 129.622 C 243.446 131.522,243.914 131.536,244.833 129.691 C 245.541 128.269,248.914 124.536,249.491 124.536 C 249.654 124.536,249.926 124.397,250.095 124.228 C 251.206 123.117,256.278 121.892,258.772 122.131 C 259.597 122.211,259.974 122.167,259.748 122.019 C 259.248 121.689,255.552 121.830,253.970 122.239 C 250.197 123.213,246.203 126.229,244.647 129.278 C 243.658 131.218,243.522 131.227,242.756 129.416 C 242.421 128.622,241.886 127.768,241.568 127.517 C 241.026 127.091,240.994 126.838,241.060 123.531 C 241.145 119.307,240.740 114.619,239.987 111.107 C 238.838 105.747,238.495 105.534,228.657 104.083 C 227.332 103.888,226.203 103.678,226.149 103.617 C 226.094 103.555,225.845 103.103,225.595 102.612 C 225.345 102.120,225.048 101.718,224.934 101.718 C 224.820 101.718,224.050 101.207,223.223 100.581 C 221.144 99.010,214.507 95.814,211.684 95.024 C 209.094 94.299,206.655 93.902,207.300 94.310 M183.505 94.702 C 181.679 95.171,182.493 95.182,184.742 94.718 C 185.725 94.515,186.158 94.349,185.704 94.349 C 185.251 94.349,184.261 94.507,183.505 94.702 M261.486 123.029 C 263.674 124.168,263.988 126.020,263.237 133.333 C 263.164 134.046,263.272 133.755,263.492 132.646 C 264.647 126.828,263.263 122.182,260.423 122.350 C 260.304 122.357,260.782 122.662,261.486 123.029 M128.815 123.442 C 126.511 124.342,123.371 128.204,123.456 130.034 C 123.467 130.261,123.637 130.007,123.835 129.470 C 125.438 125.120,128.374 122.957,132.333 123.209 C 136.111 123.449,137.435 125.177,139.530 132.598 C 139.779 133.478,140.034 134.147,140.096 134.085 C 140.611 133.570,137.288 125.211,136.168 124.200 C 134.707 122.881,131.182 122.518,128.815 123.442 M123.020 131.478 C 122.162 136.083,123.783 145.613,126.913 154.364 C 127.291 155.423,127.884 157.216,128.231 158.351 C 128.578 159.485,129.363 162.051,129.977 164.054 C 130.590 166.057,131.296 168.964,131.545 170.515 C 131.794 172.065,132.109 173.766,132.244 174.296 C 132.379 174.825,132.625 177.299,132.791 179.794 C 132.958 182.289,133.206 184.948,133.343 185.704 C 133.480 186.460,133.643 193.987,133.707 202.430 C 133.787 213.191,133.913 217.871,134.127 218.086 C 134.295 218.254,134.433 218.614,134.433 218.887 C 134.433 219.159,134.558 219.381,134.712 219.381 C 134.872 219.381,134.807 218.945,134.557 218.351 C 134.186 217.468,134.090 214.760,133.895 199.588 C 133.744 187.788,133.566 181.597,133.363 181.082 C 133.195 180.656,133.054 179.728,133.050 179.020 C 133.018 174.336,130.897 164.931,128.077 156.976 C 127.783 156.144,127.302 154.722,127.009 153.814 C 123.748 143.719,123.324 141.603,123.310 135.326 C 123.298 130.297,123.281 130.074,123.020 131.478 M262.710 135.294 C 262.635 135.652,262.434 136.625,262.262 137.457 C 261.736 140.006,260.870 143.527,260.175 145.953 C 259.810 147.224,259.567 148.319,259.635 148.386 C 259.702 148.454,259.896 147.971,260.066 147.313 C 260.235 146.655,260.547 145.560,260.760 144.880 C 261.521 142.436,263.141 134.940,262.949 134.748 C 262.892 134.690,262.784 134.936,262.710 135.294 M258.896 150.305 C 258.654 151.172,258.503 151.928,258.559 151.984 C 258.616 152.041,258.866 151.384,259.116 150.525 C 259.365 149.666,259.517 148.910,259.452 148.845 C 259.388 148.781,259.137 149.437,258.896 150.305 M257.771 153.716 C 257.537 154.515,257.393 155.217,257.451 155.275 C 257.509 155.333,257.751 154.729,257.987 153.932 C 258.224 153.136,258.368 152.434,258.307 152.374 C 258.247 152.313,258.005 152.917,257.771 153.716 M256.812 156.495 C 256.671 156.986,256.471 157.636,256.370 157.938 C 256.255 158.279,256.334 158.226,256.577 157.801 C 256.999 157.060,257.413 155.601,257.200 155.601 C 257.129 155.601,256.954 156.003,256.812 156.495 M255.042 161.174 C 253.861 164.260,251.739 169.042,249.891 172.784 C 248.239 176.128,247.105 178.743,247.244 178.882 C 247.301 178.939,247.620 178.333,247.953 177.534 C 248.287 176.736,249.227 174.722,250.042 173.058 C 252.851 167.332,256.393 158.982,256.127 158.715 C 256.070 158.658,255.582 159.765,255.042 161.174 M246.740 179.713 C 246.229 180.967,244.950 184.876,244.965 185.137 C 244.974 185.298,245.459 184.069,246.042 182.405 C 246.625 180.742,247.065 179.345,247.021 179.301 C 246.977 179.257,246.850 179.442,246.740 179.713 M244.565 186.552 C 244.468 186.805,244.323 188.326,244.243 189.932 C 244.163 191.538,244.041 193.223,243.973 193.677 C 243.882 194.285,243.921 194.393,244.120 194.089 C 244.269 193.863,244.401 192.687,244.414 191.478 C 244.428 190.268,244.538 188.598,244.659 187.766 C 244.890 186.178,244.860 185.784,244.565 186.552 M243.977 196.289 C 244.053 196.667,244.118 198.287,244.120 199.889 C 244.124 202.723,244.751 204.698,245.344 203.739 C 245.437 203.588,245.263 203.330,244.956 203.166 C 244.449 202.894,244.397 202.589,244.379 199.784 C 244.369 198.088,244.242 196.454,244.099 196.151 C 243.871 195.672,243.855 195.690,243.977 196.289 " stroke="none" fill="#443e3b" fill-rule="evenodd"></path><path id="path2" d="M172.302 47.759 C 172.794 47.820,173.598 47.820,174.089 47.759 C 174.581 47.698,174.179 47.648,173.196 47.648 C 172.213 47.648,171.811 47.698,172.302 47.759 M238.694 61.220 C 238.959 61.290,239.392 61.290,239.656 61.220 C 239.921 61.151,239.704 61.095,239.175 61.095 C 238.646 61.095,238.430 61.151,238.694 61.220 M121.866 81.578 C 122.741 81.633,124.101 81.632,124.890 81.577 C 125.678 81.522,124.962 81.477,123.299 81.477 C 121.636 81.478,120.991 81.523,121.866 81.578 M265.361 90.584 C 265.364 91.189,265.421 91.404,265.487 91.062 C 265.552 90.720,265.550 90.225,265.481 89.962 C 265.412 89.700,265.358 89.979,265.361 90.584 M265.361 94.158 C 265.364 94.763,265.421 94.978,265.487 94.636 C 265.552 94.294,265.550 93.799,265.481 93.536 C 265.412 93.273,265.358 93.553,265.361 94.158 M268.305 100.687 C 268.979 101.405,269.566 101.993,269.611 101.993 C 269.817 101.993,269.599 101.746,268.385 100.607 L 267.079 99.381 268.305 100.687 M84.770 146.804 C 84.770 148.089,84.817 148.615,84.875 147.973 C 84.933 147.330,84.933 146.278,84.875 145.636 C 84.817 144.993,84.770 145.519,84.770 146.804 M289.040 170.309 C 289.040 172.124,289.085 172.830,289.139 171.879 C 289.192 170.928,289.192 169.444,289.138 168.580 C 289.083 167.717,289.039 168.495,289.040 170.309 M102.882 182.268 C 102.882 182.797,102.938 183.014,103.007 182.749 C 103.077 182.485,103.077 182.052,103.007 181.787 C 102.938 181.522,102.882 181.739,102.882 182.268 M104.010 197.938 C 104.010 199.072,104.058 199.536,104.118 198.969 C 104.177 198.402,104.177 197.474,104.118 196.907 C 104.058 196.340,104.010 196.804,104.010 197.938 " stroke="none" fill="#0000ff" fill-rule="evenodd"></path><path id="path3" d="M190.433 93.743 C 189.102 93.872,187.432 94.116,186.722 94.286 C 186.011 94.455,184.625 94.765,183.643 94.975 C 168.709 98.156,155.723 108.171,148.858 121.802 C 147.171 125.153,147.437 125.274,151.777 123.138 C 153.639 122.222,156.035 121.178,157.100 120.818 L 159.038 120.163 159.038 115.820 C 159.038 111.840,159.089 111.381,159.658 110.317 C 160.378 108.970,161.853 107.216,162.266 107.216 C 162.423 107.216,163.328 106.534,164.278 105.700 C 166.516 103.735,167.293 103.488,173.726 102.692 C 183.324 101.504,209.014 101.149,213.471 102.142 C 214.258 102.317,223.914 103.368,224.739 103.368 C 229.171 103.368,215.381 95.785,208.724 94.562 C 207.857 94.403,206.591 94.153,205.911 94.008 C 204.203 93.642,193.385 93.457,190.433 93.743 M203.436 94.024 C 206.766 94.367,209.823 95.014,213.214 96.095 C 217.143 97.347,224.880 101.750,224.880 102.735 C 224.880 103.169,224.357 103.139,218.969 102.391 C 212.475 101.489,194.862 100.749,189.213 101.141 C 186.830 101.306,182.715 101.568,180.069 101.722 C 177.423 101.877,174.639 102.123,173.883 102.268 C 173.127 102.413,171.429 102.661,170.110 102.819 C 167.593 103.121,165.618 103.798,164.966 104.583 C 164.406 105.259,162.208 106.493,161.981 106.260 C 161.500 105.768,167.446 101.443,171.209 99.548 C 175.283 97.497,179.356 96.203,186.969 94.542 C 190.317 93.811,198.784 93.545,203.436 94.024 M159.133 109.872 C 158.129 111.911,158.071 112.539,158.481 116.899 C 158.749 119.754,158.702 119.837,156.353 120.688 C 155.410 121.030,153.293 121.983,151.649 122.805 C 149.762 123.749,148.562 124.205,148.397 124.040 C 147.683 123.325,153.871 113.795,157.621 109.837 C 160.042 107.281,160.405 107.289,159.133 109.872 M255.039 122.348 C 253.579 122.594,250.825 123.625,250.150 124.179 C 249.911 124.376,249.599 124.536,249.456 124.536 C 248.907 124.536,245.518 128.315,244.833 129.691 C 243.914 131.536,243.446 131.522,242.576 129.622 C 241.583 127.453,241.126 127.572,240.697 130.114 C 240.339 132.234,235.963 138.597,233.644 140.370 C 231.458 142.040,222.297 142.272,217.320 140.783 C 211.135 138.933,208.890 138.471,206.871 138.634 C 202.895 138.953,199.752 139.657,195.809 141.109 C 189.183 143.549,188.210 143.750,178.282 144.742 C 173.592 145.211,163.689 143.660,162.024 142.197 C 160.364 140.737,159.494 136.009,159.874 130.511 C 160.095 127.319,159.943 127.010,158.150 127.010 C 156.046 127.010,153.697 127.785,149.405 129.894 C 144.201 132.451,143.896 132.692,143.355 134.657 C 142.733 136.923,142.471 137.457,141.981 137.457 C 141.416 137.457,139.986 134.296,138.996 130.859 C 137.371 125.216,135.816 123.431,132.333 123.209 C 123.534 122.649,120.646 133.529,125.487 149.003 C 126.841 153.331,127.448 155.201,128.077 156.976 C 130.897 164.931,133.018 174.336,133.050 179.020 C 133.054 179.728,133.195 180.656,133.363 181.082 C 133.566 181.597,133.744 187.787,133.895 199.588 C 134.069 213.205,134.206 217.518,134.484 218.176 C 134.800 218.924,134.833 218.529,134.749 215.014 C 134.697 212.804,134.542 210.788,134.406 210.534 C 134.270 210.279,134.158 204.978,134.158 198.754 C 134.158 187.566,133.834 178.912,133.345 177.045 C 133.207 176.515,132.912 174.784,132.690 173.196 C 132.080 168.823,131.422 166.061,129.679 160.550 C 129.464 159.869,129.062 158.570,128.787 157.663 C 128.511 156.756,128.127 155.689,127.934 155.292 C 127.740 154.895,127.343 153.720,127.051 152.680 C 126.760 151.641,126.144 149.491,125.682 147.904 C 125.221 146.316,124.639 144.027,124.390 142.818 C 124.141 141.608,123.824 140.334,123.687 139.987 C 123.249 138.882,123.385 132.232,123.879 130.565 C 125.222 126.039,128.118 123.436,131.811 123.436 C 135.660 123.436,136.855 124.862,139.085 132.112 C 140.994 138.318,142.275 139.263,143.533 135.395 C 144.355 132.867,144.026 133.134,150.118 130.048 C 154.195 127.983,158.031 126.855,158.701 127.526 C 158.936 127.761,159.045 129.166,159.062 132.179 C 159.119 142.551,160.592 144.363,169.624 145.169 C 180.317 146.124,187.457 145.214,196.701 141.719 C 198.621 140.993,200.862 140.358,202.062 140.201 C 203.196 140.052,204.804 139.797,205.636 139.635 C 207.609 139.251,211.071 139.798,215.960 141.267 C 222.899 143.352,227.440 143.386,233.067 141.395 C 235.753 140.445,240.375 133.665,241.232 129.416 C 241.432 128.429,241.774 128.458,242.204 129.496 C 243.242 132.002,244.050 132.082,245.208 129.794 C 248.735 122.821,261.348 119.647,263.044 125.305 C 264.474 130.079,258.083 155.809,253.323 164.441 C 253.102 164.842,252.921 165.293,252.921 165.442 C 252.921 165.591,251.576 168.541,249.932 171.998 C 244.921 182.536,243.408 188.005,243.557 195.052 C 243.626 198.266,243.922 202.782,244.076 202.942 C 244.178 203.049,244.182 201.378,244.084 199.231 C 243.897 195.102,244.218 187.721,244.646 186.284 C 244.787 185.814,245.173 184.502,245.506 183.368 C 246.255 180.812,247.820 177.020,249.761 173.058 C 256.136 160.047,260.578 146.882,263.119 133.471 C 264.850 124.327,262.501 121.094,255.039 122.348 M222.189 150.704 C 222.006 150.888,221.856 151.697,221.856 152.503 C 221.856 154.362,221.757 154.398,218.222 153.806 C 214.651 153.208,201.307 152.927,197.251 153.365 C 190.826 154.058,185.847 154.936,181.586 156.126 C 179.425 156.730,179.206 156.652,178.746 155.116 C 178.368 153.855,176.718 152.158,176.101 152.395 C 175.449 152.645,175.581 153.271,176.473 154.162 C 177.981 155.671,178.227 158.506,177.050 160.815 C 176.362 162.163,176.318 163.099,176.947 162.975 C 177.634 162.840,178.366 161.673,178.771 160.069 C 179.234 158.230,179.291 158.180,181.735 157.502 C 185.955 156.332,188.696 155.822,196.564 154.742 C 200.711 154.173,212.264 154.331,217.182 155.023 C 222.561 155.781,222.257 155.667,223.114 157.242 C 224.224 159.281,226.902 160.954,227.502 159.982 C 227.602 159.821,226.912 158.991,225.969 158.138 C 223.940 156.302,223.465 155.334,223.252 152.599 C 223.093 150.563,222.819 150.074,222.189 150.704 M201.644 158.610 C 199.575 158.932,197.938 159.852,197.938 160.693 C 197.938 161.568,198.963 161.613,200.962 160.825 C 202.644 160.162,203.781 160.135,205.991 160.708 C 207.949 161.215,208.935 160.956,208.935 159.935 C 208.935 158.754,205.146 158.065,201.644 158.610 " stroke="none" fill="#8e7dac" fill-rule="evenodd"></path><path id="path4" d="M190.543 94.043 C 188.137 94.275,187.807 94.337,182.405 95.572 C 178.959 96.360,174.150 98.068,171.209 99.548 C 167.446 101.443,161.500 105.768,161.981 106.260 C 162.208 106.493,164.406 105.259,164.966 104.583 C 165.618 103.798,167.593 103.121,170.110 102.819 C 171.429 102.661,173.127 102.413,173.883 102.268 C 174.639 102.123,177.423 101.877,180.069 101.722 C 182.715 101.568,186.830 101.306,189.213 101.141 C 194.862 100.749,212.475 101.489,218.969 102.391 C 225.906 103.354,226.199 103.247,222.887 100.962 C 217.377 97.163,210.665 94.768,203.436 94.024 C 200.406 93.712,193.877 93.722,190.543 94.043 M202.887 94.307 C 211.133 95.333,218.787 98.075,223.200 101.583 L 224.407 102.543 223.416 102.543 C 222.871 102.543,221.090 102.362,219.460 102.141 C 212.834 101.242,196.644 100.463,190.515 100.748 C 183.554 101.073,174.712 101.741,172.371 102.120 C 171.086 102.328,169.416 102.582,168.660 102.684 C 167.904 102.786,166.852 103.045,166.323 103.258 L 165.361 103.646 166.048 103.087 C 173.555 96.977,190.977 92.824,202.887 94.307 M164.315 104.613 C 163.890 104.987,163.395 105.288,163.215 105.284 C 163.034 105.279,163.134 105.135,163.436 104.964 C 163.739 104.793,164.085 104.488,164.206 104.286 C 164.327 104.083,164.574 103.921,164.756 103.926 C 164.937 103.931,164.739 104.240,164.315 104.613 M157.621 109.837 C 153.871 113.795,147.683 123.325,148.397 124.040 C 148.562 124.205,149.762 123.749,151.649 122.805 C 153.293 121.983,155.410 121.030,156.353 120.688 C 158.702 119.837,158.749 119.754,158.481 116.899 C 158.071 112.539,158.129 111.911,159.133 109.872 C 160.405 107.289,160.042 107.281,157.621 109.837 M158.336 110.621 C 157.815 111.800,157.782 112.219,157.960 115.478 C 158.185 119.630,158.107 119.813,155.775 120.577 C 154.999 120.832,153.145 121.649,151.655 122.393 C 150.165 123.137,148.889 123.688,148.819 123.618 C 148.346 123.146,153.878 114.580,156.739 111.354 C 158.946 108.865,159.155 108.769,158.336 110.621 M255.211 122.624 C 251.423 123.294,246.831 126.585,245.208 129.794 C 244.050 132.082,243.242 132.002,242.204 129.496 C 241.774 128.458,241.432 128.429,241.232 129.416 C 240.375 133.665,235.753 140.445,233.067 141.395 C 227.440 143.386,222.899 143.352,215.960 141.267 C 211.071 139.798,207.609 139.251,205.636 139.635 C 204.804 139.797,203.196 140.052,202.062 140.201 C 200.862 140.358,198.621 140.993,196.701 141.719 C 187.457 145.214,180.317 146.124,169.624 145.169 C 160.592 144.363,159.119 142.551,159.062 132.179 C 159.045 129.166,158.936 127.761,158.701 127.526 C 158.031 126.855,154.195 127.983,150.118 130.048 C 144.026 133.134,144.355 132.867,143.533 135.395 C 142.275 139.263,140.994 138.318,139.085 132.112 C 136.855 124.862,135.660 123.436,131.811 123.436 C 128.118 123.436,125.222 126.039,123.879 130.565 C 123.385 132.232,123.249 138.882,123.687 139.987 C 123.824 140.334,124.141 141.608,124.390 142.818 C 124.639 144.027,125.221 146.316,125.682 147.904 C 126.144 149.491,126.760 151.641,127.051 152.680 C 127.343 153.720,127.740 154.895,127.934 155.292 C 128.127 155.689,128.509 156.756,128.782 157.663 C 129.055 158.570,129.499 159.993,129.768 160.825 C 130.615 163.440,131.651 167.242,131.829 168.385 C 131.923 168.990,132.113 169.794,132.252 170.172 C 132.488 170.819,133.024 174.389,133.634 179.381 C 133.782 180.591,134.020 188.076,134.163 196.014 C 134.376 207.838,134.744 218.695,134.943 219.038 C 135.098 219.304,135.486 219.030,135.373 218.735 C 135.210 218.312,136.211 217.573,137.325 217.294 C 139.133 216.840,140.542 215.778,140.350 215.014 C 140.251 214.619,140.057 206.997,139.919 198.076 C 139.781 189.155,139.551 181.052,139.409 180.069 C 139.267 179.086,139.017 177.352,138.854 176.216 C 138.488 173.670,137.349 169.142,135.708 163.711 C 135.023 161.443,134.081 157.979,133.616 156.014 C 132.255 150.268,132.206 150.076,131.488 147.634 C 130.019 142.638,127.389 139.268,125.087 139.431 L 123.849 139.519 123.768 135.945 C 123.623 129.558,125.196 126.098,129.011 124.413 C 133.310 122.514,136.602 124.475,138.004 129.768 C 139.255 134.492,140.710 137.643,141.903 138.214 C 142.474 138.488,142.703 138.874,142.935 139.957 C 143.408 142.164,145.022 144.605,146.008 144.605 C 148.515 144.605,150.170 141.407,150.916 135.120 C 151.567 129.642,153.208 127.852,157.595 127.838 L 158.625 127.835 158.625 130.967 C 158.625 135.712,159.075 139.361,159.885 141.194 C 160.266 142.055,160.521 142.909,160.451 143.090 C 160.237 143.648,161.536 146.471,162.607 147.779 C 164.098 149.598,167.350 150.972,168.849 150.417 C 169.199 150.287,170.110 150.101,170.874 150.002 C 171.639 149.904,173.865 149.303,175.823 148.667 L 179.381 147.511 183.918 147.616 C 193.688 147.843,196.356 147.785,198.213 147.304 C 203.388 145.965,204.864 145.659,207.241 145.434 C 210.085 145.165,213.420 145.435,216.010 146.143 C 221.992 147.778,228.642 146.680,229.557 143.906 C 229.919 142.811,230.225 142.611,232.287 142.127 C 235.014 141.486,241.375 133.411,241.375 130.589 C 241.375 129.647,241.827 129.760,242.565 130.888 L 243.291 131.996 242.704 133.146 C 240.239 137.977,239.318 143.123,240.675 144.480 C 242.704 146.509,245.875 143.937,249.083 137.659 C 251.500 132.927,252.216 131.847,254.615 129.305 C 256.662 127.137,256.894 126.591,256.711 124.380 C 256.537 122.282,257.596 122.044,260.861 123.449 C 262.860 124.309,263.623 127.264,262.845 131.134 C 262.678 131.966,262.418 133.388,262.266 134.296 C 261.151 140.982,258.008 151.654,254.208 161.649 C 253.391 163.801,250.467 170.268,249.361 172.371 C 247.447 176.011,244.483 183.685,244.008 186.231 C 243.730 187.717,243.244 193.683,243.277 195.189 C 243.422 201.737,243.587 203.078,244.326 203.747 L 245.046 204.399 244.472 203.566 C 243.926 202.774,243.671 200.399,243.557 195.052 C 243.408 188.005,244.921 182.536,249.932 171.998 C 251.576 168.541,252.921 165.591,252.921 165.442 C 252.921 165.293,253.102 164.842,253.323 164.441 C 256.133 159.346,261.181 142.566,262.971 132.371 C 264.364 124.439,261.968 121.429,255.211 122.624 M222.135 150.095 C 221.883 150.254,221.672 150.964,221.585 151.946 L 221.443 153.540 220.206 153.510 C 219.526 153.493,216.913 153.277,214.399 153.029 C 204.153 152.017,192.212 152.935,182.317 155.496 C 179.463 156.235,179.382 156.224,179.151 155.068 C 178.930 153.964,177.152 152.027,176.359 152.027 C 175.048 152.027,174.784 153.605,175.987 154.249 C 177.420 155.016,177.751 158.375,176.630 160.783 C 175.837 162.485,175.798 162.834,176.344 163.288 C 177.280 164.064,179.232 161.745,179.241 159.846 C 179.246 158.766,179.895 158.367,182.818 157.643 C 194.960 154.637,210.749 153.916,220.491 155.923 C 221.906 156.215,222.071 156.333,222.828 157.602 C 224.097 159.729,226.733 161.336,227.574 160.495 C 228.180 159.889,227.916 159.389,226.125 157.748 C 224.138 155.927,223.784 155.121,223.782 152.414 C 223.780 150.380,223.130 149.465,222.135 150.095 M223.252 152.599 C 223.465 155.334,223.940 156.302,225.969 158.138 C 226.912 158.991,227.602 159.821,227.502 159.982 C 226.902 160.954,224.224 159.281,223.114 157.242 C 222.257 155.667,222.561 155.781,217.182 155.023 C 212.264 154.331,200.711 154.173,196.564 154.742 C 188.696 155.822,185.955 156.332,181.735 157.502 C 179.291 158.180,179.234 158.230,178.771 160.069 C 178.366 161.673,177.634 162.840,176.947 162.975 C 176.318 163.099,176.362 162.163,177.050 160.815 C 178.227 158.506,177.981 155.671,176.473 154.162 C 175.581 153.271,175.449 152.645,176.101 152.395 C 176.718 152.158,178.368 153.855,178.746 155.116 C 179.206 156.652,179.425 156.730,181.586 156.126 C 185.847 154.936,190.826 154.058,197.251 153.365 C 201.307 152.927,214.651 153.208,218.222 153.806 C 221.757 154.398,221.856 154.362,221.856 152.503 C 221.856 149.615,223.025 149.695,223.252 152.599 M199.725 158.766 C 198.043 159.457,197.388 160.033,197.388 160.822 C 197.388 162.004,198.592 162.214,200.550 161.375 C 201.995 160.755,203.718 160.679,205.984 161.134 C 208.408 161.621,209.808 160.903,209.336 159.415 C 208.856 157.904,202.817 157.496,199.725 158.766 M208.443 159.000 C 210.186 160.089,208.401 161.333,205.991 160.708 C 203.781 160.135,202.644 160.162,200.962 160.825 C 198.034 161.979,196.441 160.775,199.101 159.418 C 201.118 158.389,207.040 158.124,208.443 159.000 " stroke="none" fill="#c5c8d8" fill-rule="evenodd"></path><path id="path5" d="M191.203 94.305 C 181.921 95.247,170.992 99.063,166.048 103.087 L 165.361 103.646 166.323 103.258 C 166.852 103.045,167.904 102.786,168.660 102.684 C 169.416 102.582,171.086 102.328,172.371 102.120 C 174.712 101.741,183.554 101.073,190.515 100.748 C 196.644 100.463,212.834 101.242,219.460 102.141 C 221.090 102.362,222.871 102.543,223.416 102.543 L 224.407 102.543 223.200 101.583 C 216.299 96.098,203.105 93.096,191.203 94.305 M164.206 104.286 C 164.085 104.488,163.739 104.793,163.436 104.964 C 163.134 105.135,163.034 105.279,163.215 105.284 C 163.395 105.288,163.890 104.987,164.315 104.613 C 164.739 104.240,164.937 103.931,164.756 103.926 C 164.574 103.921,164.327 104.083,164.206 104.286 M156.739 111.354 C 153.878 114.580,148.346 123.146,148.819 123.618 C 148.889 123.688,150.165 123.137,151.655 122.393 C 153.145 121.649,154.999 120.832,155.775 120.577 C 158.107 119.813,158.185 119.630,157.960 115.478 C 157.782 112.219,157.815 111.800,158.336 110.621 C 159.155 108.769,158.946 108.865,156.739 111.354 M256.885 122.764 C 256.703 122.848,256.636 123.476,256.712 124.393 C 256.894 126.589,256.659 127.140,254.615 129.305 C 252.216 131.847,251.500 132.927,249.083 137.659 C 245.875 143.937,242.704 146.509,240.675 144.480 C 239.318 143.123,240.239 137.977,242.704 133.146 L 243.291 131.996 242.565 130.888 C 241.827 129.760,241.375 129.647,241.375 130.589 C 241.375 133.411,235.014 141.486,232.287 142.127 C 230.225 142.611,229.919 142.811,229.557 143.906 C 228.642 146.680,221.992 147.778,216.010 146.143 C 213.420 145.435,210.085 145.165,207.241 145.434 C 204.864 145.659,203.388 145.965,198.213 147.304 C 196.356 147.785,193.688 147.843,183.918 147.616 L 179.381 147.511 175.823 148.667 C 173.865 149.303,171.639 149.904,170.874 150.002 C 170.110 150.101,169.199 150.287,168.849 150.417 C 167.350 150.972,164.098 149.598,162.607 147.779 C 161.536 146.471,160.237 143.648,160.451 143.090 C 160.521 142.909,160.266 142.055,159.885 141.194 C 159.075 139.361,158.625 135.712,158.625 130.967 L 158.625 127.835 157.595 127.838 C 153.208 127.852,151.567 129.642,150.916 135.120 C 150.170 141.407,148.515 144.605,146.008 144.605 C 145.022 144.605,143.408 142.164,142.935 139.957 C 142.703 138.874,142.474 138.488,141.903 138.214 C 140.710 137.643,139.255 134.492,138.004 129.768 C 136.602 124.475,133.310 122.514,129.011 124.413 C 125.196 126.098,123.623 129.558,123.768 135.945 L 123.849 139.519 125.087 139.431 C 127.389 139.268,130.019 142.638,131.488 147.634 C 132.206 150.076,132.255 150.268,133.616 156.014 C 134.081 157.979,135.023 161.443,135.708 163.711 C 137.349 169.142,138.488 173.670,138.854 176.216 C 139.017 177.352,139.267 179.086,139.409 180.069 C 139.551 181.052,139.781 189.155,139.919 198.076 C 140.057 206.997,140.251 214.619,140.350 215.014 C 140.544 215.786,139.029 216.909,137.258 217.306 C 136.256 217.531,135.130 218.403,135.361 218.776 C 135.601 219.165,137.280 218.898,138.773 218.233 C 157.791 209.768,170.579 210.715,189.691 222.007 C 206.152 231.732,216.511 233.016,225.623 226.460 C 226.411 225.893,227.140 225.430,227.243 225.430 C 227.472 225.430,232.650 220.107,233.846 218.643 C 234.823 217.447,239.929 210.635,240.881 209.258 C 241.228 208.755,241.905 207.808,242.385 207.152 C 242.865 206.497,243.174 205.877,243.072 205.775 C 242.970 205.673,243.010 205.629,243.162 205.677 C 243.313 205.725,243.778 205.465,244.195 205.099 L 244.953 204.433 244.280 203.729 C 243.600 203.017,243.411 201.410,243.277 195.189 C 243.244 193.680,243.731 187.714,244.008 186.231 C 244.483 183.685,247.447 176.011,249.361 172.371 C 254.457 162.679,260.512 144.815,262.266 134.296 C 262.418 133.388,262.678 131.966,262.845 131.134 C 263.205 129.343,263.039 125.802,262.546 124.761 C 261.988 123.583,258.087 122.207,256.885 122.764 M223.277 150.283 C 223.659 150.629,223.780 151.141,223.782 152.414 C 223.784 155.121,224.138 155.927,226.125 157.748 C 227.916 159.389,228.180 159.889,227.574 160.495 C 226.733 161.336,224.097 159.729,222.828 157.602 C 222.071 156.333,221.906 156.215,220.491 155.923 C 213.467 154.476,200.060 154.475,191.478 155.922 C 181.453 157.612,179.249 158.319,179.241 159.846 C 179.232 161.745,177.280 164.064,176.344 163.288 C 175.798 162.834,175.837 162.485,176.630 160.783 C 177.751 158.375,177.420 155.016,175.987 154.249 C 174.784 153.605,175.048 152.027,176.359 152.027 C 177.152 152.027,178.930 153.964,179.151 155.068 C 179.382 156.224,179.463 156.235,182.317 155.496 C 192.212 152.935,204.153 152.017,214.399 153.029 C 216.913 153.277,219.526 153.493,220.206 153.510 L 221.443 153.540 221.585 151.946 C 221.672 150.964,221.883 150.254,222.135 150.095 C 222.675 149.753,222.695 149.756,223.277 150.283 M208.230 158.463 C 210.968 159.607,209.150 161.770,205.984 161.134 C 203.718 160.679,201.995 160.755,200.550 161.375 C 198.124 162.414,196.510 161.576,197.732 159.912 C 198.885 158.341,205.689 157.401,208.230 158.463 " stroke="none" fill="#eefcff" fill-rule="evenodd"></path></g></svg>